<svg width="200" height="200" viewBox="0 0 200 200" fill="none" xmlns="http://www.w3.org/2000/svg">
<path d="M88.8142 174.915C84.7464 168.475 76.2718 166.441 69.8311 170.508L52.204 181.695L51.1871 160.678C50.8481 152.881 44.4074 147.119 36.6108 147.458L15.5938 148.475L25.0854 129.831C28.4752 123.051 26.1023 114.576 19.3227 110.847L1.01758 100.678L19.3227 90.5085C26.1023 86.7797 28.4752 78.3051 25.0854 71.5255L15.2549 52.5424L36.2718 53.5593C44.0684 53.8983 50.5091 48.1356 50.8481 40.339L51.865 19.3221L69.8311 30.5085C76.2718 34.5763 84.7464 32.5424 88.8142 25.7627L99.6617 7.79663L110.509 25.7627C114.577 32.2034 123.051 34.2373 129.492 30.1695L147.119 18.9831L148.136 40C148.475 47.7966 154.916 53.5593 162.712 53.2204L183.729 52.2034L174.238 70.8475C170.848 77.6271 173.221 86.1017 180.001 89.8305L198.306 100L180.001 110.17C173.221 113.898 170.848 122.373 174.238 129.153L183.729 147.797L162.712 146.78C154.916 146.441 148.475 152.203 148.136 160L147.119 181.017L129.153 170.17C122.712 166.102 114.238 168.136 110.17 174.915L99.3227 192.881L88.8142 174.915Z" fill="url(#paint0_linear_115_1856)"/>
<defs>
<linearGradient id="paint0_linear_115_1856" x1="1.01758" y1="7.79663" x2="198.306" y2="7.79663" gradientUnits="userSpaceOnUse">
<stop stop-color="#E1EEC3"/>
<stop offset="1" stop-color="#F05053"/>
</linearGradient>
</defs>
</svg>
