<svg width="200" height="200" viewBox="0 0 200 200" fill="none" xmlns="http://www.w3.org/2000/svg">
<path d="M146.171 100C161.187 97.03 175.962 89.691 184.977 80.047L195.212 69.098L180.496 66.256C167.534 63.752 151.267 66.5 137.373 72.924C147.776 61.694 155.416 47.073 157.04 33.972L158.885 19.098L145.309 25.448C133.351 31.042 121.806 42.826 114.34 56.19C116.156 40.99 113.743 24.67 107.356 13.117L100.106 0L92.856 13.117C86.469 24.671 84.056 40.991 85.871 56.19C78.406 42.826 66.861 31.041 54.903 25.448L41.327 19.098L43.171 33.972C44.796 47.072 52.436 61.694 62.839 72.924C48.945 66.5 32.677 63.753 19.715 66.256L5 69.098L15.234 80.047C24.25 89.691 39.024 97.03 54.041 100C39.025 102.97 24.249 110.308 15.234 119.953L5 130.902L19.715 133.744C32.677 136.248 48.945 133.5 62.839 127.076C52.436 138.306 44.796 152.927 43.171 166.028L41.327 180.901L54.902 174.552C66.861 168.958 78.406 157.174 85.871 143.81C84.055 159.009 86.468 175.329 92.855 186.883L100.105 200L107.355 186.883C113.742 175.329 116.155 159.009 114.34 143.81C121.805 157.174 133.35 168.959 145.308 174.552L158.883 180.901L157.039 166.028C155.414 152.927 147.774 138.306 137.372 127.076C151.266 133.5 167.533 136.247 180.495 133.744L195.21 130.902L184.976 119.953C175.962 110.309 161.187 102.97 146.171 100Z" fill="url(#paint0_linear_115_1859)"/>
<defs>
<linearGradient id="paint0_linear_115_1859" x1="100.106" y1="0" x2="100.106" y2="200" gradientUnits="userSpaceOnUse">
<stop stop-color="#B8DBFC"/>
<stop offset="1" stop-color="#A1C8A5"/>
</linearGradient>
</defs>
</svg>
