<svg width="200" height="200" viewBox="0 0 200 200" fill="none" xmlns="http://www.w3.org/2000/svg">
<path d="M196.47 142.745C196.47 144.706 184.314 144.706 183.529 146.667C182.745 148.628 192.549 156.079 191.372 157.647C190.196 159.216 180 152.549 178.431 154.118C176.863 155.294 181.176 167.059 179.216 167.843C166.667 172.157 150.98 163.922 138.039 166.275C125.098 168.628 112.941 181.569 99.9999 181.569C87.0587 181.569 74.9018 168.235 61.9607 166.275C49.0195 163.922 33.3332 172.549 20.7842 167.843C18.8234 167.059 23.1371 155.686 21.5685 154.118C19.9999 152.941 9.80381 159.216 8.62734 157.647C7.45087 156.079 17.2548 148.628 16.4705 146.667C15.6862 144.706 3.5293 144.706 3.5293 142.745C3.5293 135.686 15.6862 129.02 15.6862 121.961C15.6862 114.902 3.5293 108.235 3.5293 101.177C3.5293 94.1178 15.6862 87.4511 15.6862 80.3923C15.6862 73.3334 3.5293 66.6668 3.5293 59.608C3.5293 57.6472 15.6862 57.6472 16.4705 55.6864C17.2548 53.7256 7.45087 46.2746 8.62734 44.706C9.80381 43.1374 19.9999 49.804 21.5685 48.2354C23.1371 47.0589 18.8234 35.2942 20.7842 34.5099C33.3332 30.1962 49.0195 38.4315 61.9607 36.0785C74.9018 33.7256 87.0587 20.7844 99.9999 20.7844C112.941 20.7844 125.098 34.1178 138.039 36.0785C150.98 38.4315 166.667 29.804 179.216 34.5099C181.176 35.2942 176.863 46.6668 178.431 48.2354C180 49.4119 190.196 43.1374 191.372 44.706C192.549 46.2746 182.745 53.7256 183.529 55.6864C184.314 57.6472 196.47 57.6472 196.47 59.608C196.47 66.6668 184.314 73.3334 184.314 80.3923C184.314 87.4511 196.47 94.1178 196.47 101.177C196.47 108.235 184.314 114.902 184.314 121.961C184.314 129.02 196.47 136.079 196.47 142.745Z" fill="url(#paint0_linear_115_1851)"/>
<defs>
<linearGradient id="paint0_linear_115_1851" x1="3.5293" y1="20.7844" x2="196.47" y2="20.7844" gradientUnits="userSpaceOnUse">
<stop stop-color="#B6E3FC"/>
<stop offset="1" stop-color="#A4D6F1"/>
</linearGradient>
</defs>
</svg>
