<svg width="200" height="200" viewBox="0 0 200 200" fill="none" xmlns="http://www.w3.org/2000/svg">
<g clip-path="url(#clip0_115_1857)">
<path d="M194.736 96.2075C209.557 69.6751 191.41 37.8094 161.189 34.7996L150.161 33.7008C142.118 32.8988 134.934 29.4141 128.964 22.7133C108.189 -0.605149 69.5038 5.15307 56.769 33.168C53.6674 39.9906 48.0588 45.4485 40.9768 48.5367L25.4404 55.3102C0.675124 66.1071 -7.72138 96.0657 7.92162 117.491L17.7795 130.992C19.9205 133.925 21.4834 137.167 22.4252 140.628L27.3205 158.625C34.0264 183.279 61.9905 196.601 86.3991 186.239L88.489 185.352C94.7003 182.715 101.767 182.076 108.384 183.549L140.434 190.685C171.658 197.638 199.181 170.539 192.208 140.754L188.152 123.429C186.51 116.416 187.556 109.062 191.099 102.721L194.736 96.2075Z" fill="url(#paint0_linear_115_1857)"/>
</g>
<defs>
<linearGradient id="paint0_linear_115_1857" x1="0" y1="8.21387" x2="200" y2="8.21387" gradientUnits="userSpaceOnUse">
<stop stop-color="#CD9CF2"/>
<stop offset="1" stop-color="#9D81EF"/>
</linearGradient>
<clipPath id="clip0_115_1857">
<rect width="200" height="200" fill="white"/>
</clipPath>
</defs>
</svg>
