<svg width="200" height="200" viewBox="0 0 200 200" fill="none" xmlns="http://www.w3.org/2000/svg">
<g clip-path="url(#clip0_115_1860)">
<path d="M100 200C93.403 200 87.326 198.351 81.77 195.052C76.389 191.927 72.049 187.674 68.75 182.292C65.625 176.736 64.062 170.66 64.062 164.062C64.062 155.729 65.972 148.785 69.792 143.229C73.612 137.674 79.514 131.163 87.5 123.698C93.403 118.316 96.354 113.194 96.354 108.333V103.646H91.667C86.285 103.646 78.907 109.028 69.531 119.792C60.33 130.556 49.131 135.937 35.937 135.937C29.34 135.937 23.264 134.375 17.708 131.25C12.326 127.951 7.986 123.611 4.688 118.229C1.563 112.674 0 106.597 0 100C0 93.403 1.563 87.413 4.688 82.031C7.986 76.476 12.326 72.135 17.708 69.011C23.264 65.711 29.34 64.063 35.938 64.063C48.958 64.063 60.069 69.358 69.271 79.948C78.472 90.538 85.937 95.833 91.667 95.833H96.354V91.667C96.354 86.805 93.403 81.684 87.5 76.302L81.51 70.833C77.17 66.84 73.177 62.066 69.531 56.51C65.885 50.781 64.062 43.924 64.062 35.938C64.062 29.34 65.625 23.351 68.75 17.968C72.049 12.413 76.389 8.073 81.77 4.948C87.327 1.649 93.404 0 100 0C106.597 0 112.587 1.65 117.969 4.948C123.524 8.247 127.865 12.587 130.99 17.968C134.288 23.351 135.937 29.34 135.937 35.938C135.937 48.958 130.642 60.069 120.052 69.271C109.462 78.472 104.167 85.937 104.167 91.667V95.833H108.333C114.236 95.833 121.701 90.538 130.729 79.948C139.583 69.358 150.694 64.063 164.063 64.063C170.66 64.063 176.649 65.712 182.031 69.01C187.587 72.135 191.927 76.389 195.052 81.77C198.351 87.154 200 93.23 200 100C200 106.597 198.351 112.674 195.052 118.229C191.927 123.611 187.587 127.951 182.031 131.25C176.649 134.375 170.66 135.937 164.063 135.937C155.903 135.937 148.872 133.941 142.969 129.948C137.24 125.955 130.816 120.139 123.698 112.5C118.316 106.597 113.194 103.646 108.333 103.646H104.167V108.333C104.167 114.757 109.462 122.222 120.052 130.729C130.642 139.236 135.937 150.347 135.937 164.062C135.937 170.66 134.288 176.736 130.99 182.292C127.865 187.674 123.611 191.927 118.229 195.052C112.847 198.351 106.771 200 100 200Z" fill="url(#paint0_linear_115_1860)"/>
</g>
<defs>
<linearGradient id="paint0_linear_115_1860" x1="100" y1="0" x2="100" y2="200" gradientUnits="userSpaceOnUse">
<stop stop-color="#DF99F7"/>
<stop offset="1" stop-color="#FFDBB0"/>
</linearGradient>
<clipPath id="clip0_115_1860">
<rect width="200" height="200" fill="white"/>
</clipPath>
</defs>
</svg>
