<svg width="200" height="200" viewBox="0 0 200 200" fill="none" xmlns="http://www.w3.org/2000/svg">
<g clip-path="url(#clip0_115_1855)">
<path d="M120.588 11.7647H179.412C180.972 11.7647 182.468 12.3844 183.571 13.4876C184.674 14.5907 185.294 16.0869 185.294 17.647V76.4706C185.294 78.0307 184.674 79.5269 183.571 80.63C182.468 81.7332 180.972 82.3529 179.412 82.3529H120.588C119.028 82.3529 117.532 81.7332 116.429 80.63C115.326 79.5269 114.706 78.0307 114.706 76.4706V17.647C114.706 16.0869 115.326 14.5907 116.429 13.4876C117.532 12.3844 119.028 11.7647 120.588 11.7647ZM11.7647 126.471H70.5882C72.1483 126.471 73.6445 127.09 74.7477 128.193C75.8508 129.297 76.4706 130.793 76.4706 132.353V191.176C76.4706 192.737 75.8508 194.233 74.7477 195.336C73.6445 196.439 72.1483 197.059 70.5882 197.059H11.7647C10.2046 197.059 8.70841 196.439 7.60525 195.336C6.5021 194.233 5.88235 192.737 5.88235 191.176V132.353C5.88235 130.793 6.5021 129.297 7.60525 128.193C8.70841 127.09 10.2046 126.471 11.7647 126.471ZM158.024 117.624L199.2 188.212C201.485 192.135 198.659 197.059 194.118 197.059H111.765C107.224 197.059 104.397 192.135 106.682 188.212L147.859 117.624C150.129 113.732 155.753 113.732 158.024 117.624ZM44.1176 2.94116C68.4824 2.94116 88.2353 22.6941 88.2353 47.0588C88.2353 71.4235 68.4824 91.1765 44.1176 91.1765C19.7529 91.1765 0 71.4235 0 47.0588C0 22.6941 19.7529 2.94116 44.1176 2.94116Z" fill="url(#paint0_linear_115_1855)"/>
</g>
<defs>
<linearGradient id="paint0_linear_115_1855" x1="0" y1="2.94116" x2="200.009" y2="2.94116" gradientUnits="userSpaceOnUse">
<stop stop-color="#CD9CF2"/>
<stop offset="1" stop-color="#CCC4E6"/>
</linearGradient>
<clipPath id="clip0_115_1855">
<rect width="200" height="200" fill="white"/>
</clipPath>
</defs>
</svg>
