<svg width="200" height="200" viewBox="0 0 200 200" fill="none" xmlns="http://www.w3.org/2000/svg">
<g clip-path="url(#clip0_115_1852)">
<path d="M200.001 166.668C200.001 185.076 185.076 200.001 166.668 200.001C148.258 200.001 133.335 185.076 133.335 166.668C133.335 148.258 148.258 133.335 166.668 133.335C185.076 133.335 200.001 148.258 200.001 166.668ZM158.335 87.5C158.335 103.609 145.277 116.667 129.167 116.667C113.058 116.667 100 103.609 100 87.4995C100 71.3921 113.058 58.3325 129.167 58.3325C145.277 58.3325 158.335 71.3926 158.335 87.5ZM100 150C100 177.614 77.6138 200.001 49.999 200.001C22.3867 200.001 0 177.614 0 150C0 122.385 22.3867 100 49.999 100C77.6138 100 100 122.385 100 150L100 150ZM83.3359 41.668C83.3359 64.6802 64.6802 83.3359 41.668 83.3359C18.6558 83.3359 0 64.6802 0 41.668C0 18.6558 18.6558 0 41.668 0C64.6802 0 83.3359 18.6558 83.3359 41.668ZM200.001 25C200.001 38.8071 188.807 49.999 174.999 49.999C161.192 49.999 150 38.8071 150 24.9995C150 11.1924 161.192 0 175 0C188.807 0 200.001 11.1924 200.001 25H200.001ZM191.666 108.332C191.666 112.934 187.935 116.665 183.333 116.665C178.73 116.665 174.999 112.935 174.999 108.332C174.999 103.731 178.73 100 183.333 100C187.935 100 191.666 103.731 191.666 108.332ZM129.167 29.167C129.167 36.0718 123.572 41.668 116.667 41.668C109.764 41.668 104.168 36.0718 104.168 29.167C104.168 22.2646 109.764 16.6685 116.667 16.6685C123.571 16.6685 129.167 22.2642 129.167 29.167Z" fill="url(#paint0_linear_115_1852)"/>
</g>
<defs>
<linearGradient id="paint0_linear_115_1852" x1="0" y1="0" x2="200.001" y2="0" gradientUnits="userSpaceOnUse">
<stop stop-color="#74EBD5"/>
<stop offset="1" stop-color="#9FACE6"/>
</linearGradient>
<clipPath id="clip0_115_1852">
<rect width="200" height="200" fill="white"/>
</clipPath>
</defs>
</svg>
