<svg width="200" height="200" viewBox="0 0 200 200" fill="none" xmlns="http://www.w3.org/2000/svg">
<path d="M144.223 62.4273C108.525 40.7082 125.265 10.0531 125.984 8.77891C126.496 7.888 126.765 6.87808 126.763 5.85047C126.762 4.82286 126.49 3.81372 125.975 2.92431C125.461 2.0349 124.721 1.29651 123.831 0.783228C122.941 0.269949 121.931 -0.000162352 120.904 7.32102e-08C102.527 7.32102e-08 88.1375 5.22109 78.134 15.5191C61.0406 33.1145 61.8336 60.5 62.1723 72.1941C62.2102 73.4898 62.2422 74.609 62.2422 75.4406C62.2422 84.1234 63.6352 92.1391 64.8644 99.2117C65.6566 103.77 66.3406 107.705 66.4625 110.799C66.5926 114.112 65.9875 114.871 65.9621 114.902C65.8758 115.005 65.1566 115.387 63.2137 115.387C60.9973 115.387 59.3637 114.663 57.9156 113.039C52.2609 106.698 51.8699 89.3856 52.9512 79.9664C53.0467 79.1454 52.9674 78.3135 52.7185 77.5253C52.4697 76.7372 52.0569 76.0106 51.5072 75.3933C50.9576 74.776 50.2836 74.282 49.5295 73.9437C48.7753 73.6054 47.9582 73.4305 47.1316 73.4305C31.9187 73.4305 20.5508 98.3086 20.5508 120.552C20.5508 131.009 22.6543 141.252 26.8023 150.998C30.8125 160.419 36.5305 168.921 43.7992 176.27C58.9355 191.572 78.8937 200 99.9965 200C121.185 200 141.138 191.691 156.18 176.606C171.184 161.559 179.448 141.652 179.448 120.552C179.448 93.6293 158.382 71.0414 144.223 62.4273Z" fill="url(#paint0_linear_115_1858)"/>
<defs>
<linearGradient id="paint0_linear_115_1858" x1="20.5508" y1="0" x2="179.448" y2="0" gradientUnits="userSpaceOnUse">
<stop stop-color="#B2D8E3"/>
<stop offset="1" stop-color="#83C3FF"/>
</linearGradient>
</defs>
</svg>
